<svg width="16" height="16" viewBox="0 0 16 16" fill="none" xmlns="http://www.w3.org/2000/svg">
<path d="M11.8 8.00005C11.8 10 10.2 11.6 8.19999 11.6C6.19999 11.6 4.49999 10 4.49999 8.00005C4.49999 7.70005 4.49999 7.50005 4.59999 7.20005H0.299988V13C0.299988 14.5 1.49999 15.7 2.99999 15.7H13C14.5 15.7 15.7 14.5 15.7 13V7.20005H11.7C11.7 7.50005 11.8 7.70005 11.8 8.00005ZM13 0.300049H2.99999C1.49999 0.300049 0.299988 1.50005 0.299988 3.00005V5.90005H5.19999C5.89999 5.00005 6.89999 4.40005 8.09999 4.40005C9.29999 4.40005 10.3 5.00005 11 5.90005H15.7V3.00005C15.7 1.50005 14.5 0.300049 13 0.300049ZM14 3.40005C14 3.80005 13.7 4.10005 13.3 4.10005H12.4C12 4.10005 11.7 3.80005 11.7 3.40005V2.50005C11.7 2.10005 12 1.80005 12.4 1.80005H13.3C13.7 1.80005 14 2.10005 14 2.50005V3.40005Z" fill="black"/>
</svg>
